# xmcd
#
# Track frame offsets:
#       150
#       17820
#       37276
#       50310
#       68903
#       79720
#       97665
#       114550
#       128077
#       143585
#       152501
#       165102
#       187651
#
# Disc length: 2706 seconds
#
# Revision: 0
# Processed by: cddbd v1.5.2PL0 Copyright (c) Steve Scherf et al.
# Submitted via: WaveLab 6.10
#
DISCID=930a900d
DTITLE=North Wind - North Wind Live at the Old River Bridge Inn [Disc Two]
DYEAR=1900
DGENRE=
TTITLE0=Good Hearted Woman
TTITLE1=Peaceful Easy Feelings 
TTITLE2=Fox On the Run
TTITLE3=Brand New Mr. Me
TTITLE4=Rollin' In My Sweet Baby's Arms
TTITLE5=I Can't Stop Loving You
TTITLE6=Storms Never Last
TTITLE7=Blue Suede Shoes
TTITLE8=Wasted Days and Wasted Nights
TTITLE9=Under the Double Eagle
TTITLE10=Rock 'n' Roll Music
TTITLE11=Sing Me Back Home
TTITLE12=The Girls All Get Prettier At Closing Time
EXTD=
EXTT0=
EXTT1=
EXTT2=
EXTT3=
EXTT4=
EXTT5=
EXTT6=
EXTT7=
EXTT8=
EXTT9=
EXTT10=
EXTT11=
EXTT12=
PLAYORDER=
